<svg width="41" height="38" viewBox="0 0 41 38" fill="none" xmlns="http://www.w3.org/2000/svg">
<path id="Vector" d="M32.5407 2.26025C34.3286 4.40068 35.7559 6.98871 36.7346 9.86469C37.7133 12.7407 38.2226 15.8436 38.2312 18.982C38.2397 22.1205 37.7473 25.2279 36.7842 28.1126C35.8212 30.9972 34.4079 33.598 32.6317 35.7544M27.6589 8.98104C28.7317 10.2653 29.5881 11.8181 30.1753 13.5437C30.7625 15.2693 31.0681 17.131 31.0732 19.0141C31.0784 20.8972 30.7829 22.7616 30.2051 24.4924C29.6272 26.2232 28.7793 27.7837 27.7136 29.0775M12.2484 26.8891L15.2462 31.6518C16.8089 34.1346 17.5903 35.376 18.2749 35.5111C18.8675 35.6281 19.4664 35.3563 19.87 34.7871C20.3363 34.1296 20.3363 32.5336 20.3363 29.3415V8.78297C20.3363 5.59088 20.3363 3.99484 19.87 3.33735C19.4664 2.76817 18.8675 2.49636 18.2749 2.61334C17.5903 2.74847 16.8089 3.98987 15.2462 6.47265L12.2484 11.2354C11.9327 11.7369 11.7748 11.9877 11.5795 12.1682C11.4065 12.328 11.2126 12.4469 11.0069 12.5192C10.7748 12.6008 10.5237 12.6008 10.0214 12.6008H7.47436C6.12114 12.6008 5.44453 12.6008 4.89773 12.8328C3.82166 13.2891 2.97753 14.3728 2.62204 15.7543C2.44141 16.4563 2.44141 17.3249 2.44141 19.0622C2.44141 20.7995 2.44141 21.6682 2.62204 22.3701C2.97753 23.7516 3.82166 24.8353 4.89773 25.2917C5.44453 25.5236 6.12114 25.5236 7.47436 25.5236H10.0214C10.5237 25.5236 10.7748 25.5236 11.0069 25.6052C11.2126 25.6775 11.4065 25.7964 11.5795 25.9563C11.7748 26.1368 11.9327 26.3875 12.2484 26.8891Z" stroke="#005CB8" stroke-width="3.83971" stroke-linecap="round" stroke-linejoin="round"/>
</svg>
