<svg width="41" height="38" viewBox="0 0 41 38" fill="none" xmlns="http://www.w3.org/2000/svg">
<path id="Vector" d="M32.5407 2.30762C34.3286 4.44805 35.7559 7.03608 36.7346 9.91205C37.7133 12.788 38.2226 15.8909 38.2312 19.0294C38.2397 22.1678 37.7473 25.2753 36.7842 28.1599C35.8212 31.0446 34.4079 33.6454 32.6317 35.8018M27.6589 9.02841C28.7317 10.3127 29.5881 11.8655 30.1753 13.5911C30.7625 15.3167 31.0681 17.1784 31.0732 19.0615C31.0784 20.9445 30.7829 22.809 30.2051 24.5398C29.6272 26.2706 28.7793 27.8311 27.7136 29.1249M12.2484 26.9365L15.2462 31.6992C16.8089 34.1819 17.5903 35.4233 18.2749 35.5585C18.8675 35.6755 19.4664 35.4036 19.87 34.8345C20.3363 34.177 20.3363 32.5809 20.3363 29.3888V8.83034C20.3363 5.63825 20.3363 4.0422 19.87 3.38471C19.4664 2.81554 18.8675 2.54372 18.2749 2.6607C17.5903 2.79584 16.8089 4.03723 15.2462 6.52001L12.2484 11.2827C11.9327 11.7843 11.7748 12.0351 11.5795 12.2155C11.4065 12.3754 11.2126 12.4943 11.0069 12.5666C10.7748 12.6482 10.5237 12.6482 10.0214 12.6482H7.47436C6.12114 12.6482 5.44453 12.6482 4.89773 12.8801C3.82166 13.3365 2.97753 14.4202 2.62204 15.8017C2.44141 16.5037 2.44141 17.3723 2.44141 19.1096C2.44141 20.8469 2.44141 21.7155 2.62204 22.4175C2.97753 23.799 3.82166 24.8827 4.89773 25.3391C5.44453 25.571 6.12114 25.571 7.47436 25.571H10.0214C10.5237 25.571 10.7748 25.571 11.0069 25.6526C11.2126 25.7249 11.4065 25.8438 11.5795 26.0037C11.7748 26.1841 11.9327 26.4349 12.2484 26.9365Z" stroke="#FCCB30" stroke-width="3.83971" stroke-linecap="round" stroke-linejoin="round"/>
</svg>
