<svg width="17" height="17" viewBox="0 0 17 17" fill="none" xmlns="http://www.w3.org/2000/svg">
<path id="Vector" d="M15.8822 5.91769C15.8822 5.91769 15.8822 5.91769 15.8822 5.87876C15.3337 4.38127 14.3385 3.08837 13.0312 2.17497C11.724 1.26156 10.1677 0.771729 8.57289 0.771729C6.97811 0.771729 5.42182 1.26156 4.11453 2.17497C2.80725 3.08837 1.81206 4.38127 1.26358 5.87876C1.26358 5.87876 1.26358 5.87876 1.26358 5.91769C0.651071 7.60754 0.651071 9.45877 1.26358 11.1486C1.26358 11.1486 1.26358 11.1486 1.26358 11.1875C1.81206 12.685 2.80725 13.9779 4.11453 14.8913C5.42182 15.8047 6.97811 16.2946 8.57289 16.2946C10.1677 16.2946 11.724 15.8047 13.0312 14.8913C14.3385 13.9779 15.3337 12.685 15.8822 11.1875C15.8822 11.1875 15.8822 11.1875 15.8822 11.1486C16.4947 9.45877 16.4947 7.60754 15.8822 5.91769ZM2.5324 10.09C2.26247 9.06965 2.26247 7.99666 2.5324 6.97633H3.98025C3.85573 8.01048 3.85573 9.05583 3.98025 10.09H2.5324ZM3.1707 11.6468H4.26048C4.44318 12.341 4.70434 13.0122 5.03889 13.6473C4.2755 13.1273 3.63735 12.4439 3.1707 11.6468ZM4.26048 5.4195H3.1707C3.63064 4.62481 4.26062 3.94166 5.01554 3.41898C4.68903 4.05513 4.43573 4.72626 4.26048 5.4195ZM7.7789 14.5269C6.82283 13.8253 6.15136 12.8029 5.88736 11.6468H7.7789V14.5269ZM7.7789 10.09H5.55264C5.40738 9.05718 5.40738 8.00913 5.55264 6.97633H7.7789V10.09ZM7.7789 5.4195H5.88736C6.15136 4.26338 6.82283 3.24097 7.7789 2.53937V5.4195ZM13.9439 5.4195H12.8542C12.6714 4.72528 12.4103 4.05412 12.0757 3.41898C12.8391 3.93901 13.4773 4.62236 13.9439 5.4195ZM9.33573 2.53937C10.2918 3.24097 10.9633 4.26338 11.2273 5.4195H9.33573V2.53937ZM9.33573 14.5269V11.6468H11.2273C10.9633 12.8029 10.2918 13.8253 9.33573 14.5269ZM11.562 10.09H9.33573V6.97633H11.562C11.7073 8.00913 11.7073 9.05718 11.562 10.09ZM12.0991 13.6473C12.4336 13.0122 12.6948 12.341 12.8775 11.6468H13.9673C13.5006 12.4439 12.8625 13.1273 12.0991 13.6473ZM14.5822 10.09H13.1344C13.1977 9.57347 13.2289 9.05353 13.2278 8.53315C13.2287 8.01279 13.1975 7.49286 13.1344 6.97633H14.5822C14.8522 7.99666 14.8522 9.06965 14.5822 10.09Z" fill="#FBB03B"/>
</svg>
