<svg width="78" height="54" viewBox="0 0 78 54" fill="none" xmlns="http://www.w3.org/2000/svg">
<g id="Group 6">
<g id="Group 7">
<path id="Vector" d="M1.73858 1.74392C-0.0200104 3.3769 0.984898 5.88917 3.37155 5.88917C5.75821 5.88917 5.88383 6.76846 5.88383 27.1179C5.88383 47.3416 5.75821 48.4722 3.37155 49.2258C1.98981 49.6027 0.859284 50.8588 0.859284 51.8637C0.859284 53.3711 4.25085 53.6223 20.7062 53.6223C44.824 53.6223 46.5826 52.9942 47.0851 44.3269C47.5875 37.0413 45.9545 32.5192 41.0556 27.8715L37.4128 24.3544L40.4275 20.7116C46.3314 13.6772 43.191 5.13549 33.77 2.37199C28.6199 0.739014 3.12033 0.236561 1.73858 1.74392ZM31.509 7.89899C34.2725 10.6625 34.0213 16.6919 31.0065 19.7067C29.3736 21.3396 26.8613 22.2189 23.4697 22.2189H18.4452V14.0541V5.88917H23.9722C27.3637 5.88917 30.3785 6.64285 31.509 7.89899ZM31.6346 29.7557C32.7651 31.0119 34.1469 34.6547 34.3981 37.5438C35.2774 45.2062 32.2627 48.849 24.7259 49.1002L19.0732 49.2258L18.6964 38.1718L18.3196 27.2435H23.8466C27.7406 27.2435 30.0016 27.9972 31.6346 29.7557Z" fill="#0B1C3F"/>
<path id="Vector_2" d="M62.2231 26.6779C60.5072 28.4365 59.9792 31.5769 59.9792 39.7418C59.9792 47.2786 59.4512 50.7957 58.3953 51.1726C57.4713 51.5494 61.4312 51.9263 67.239 51.9263C74.3667 51.9263 77.1386 51.675 75.8187 50.7957C74.2347 49.9165 74.2347 49.2884 75.5547 48.0322C77.9306 45.7712 77.5346 41.5003 74.6307 38.9881C72.2548 36.9783 72.2548 36.6014 74.2347 33.2099C76.2147 29.8183 76.2147 29.4414 73.9707 27.0548C70.8028 23.7888 65.127 23.6632 62.2231 26.6779ZM70.2749 30.1951C70.6708 33.0842 67.503 36.3502 65.259 35.0941C63.8071 34.2148 63.4111 29.0646 64.863 27.6829C66.579 26.0499 69.8789 27.5572 70.2749 30.1951ZM70.2749 39.7418C73.8387 43.1333 71.1988 49.5396 66.315 49.5396C64.4671 49.5396 63.9391 48.5347 63.9391 44.7663C63.9391 38.2344 66.579 36.2246 70.2749 39.7418Z" fill="#0B1C3F"/>
</g>
</g>
</svg>
