<svg width="226" height="63" viewBox="0 0 226 63" fill="none" xmlns="http://www.w3.org/2000/svg">
<g id="Group 42">
<path id="Vector" d="M11.876 1.44782C3.65653 3.66123 0.209671 11.9246 4.71711 18.86C7.1034 22.6966 12.1411 23.1393 15.0577 19.7454C17.7091 16.9417 17.7091 14.7283 15.0577 10.5966C13.2017 7.64537 13.2017 7.35025 15.588 7.35025C17.0463 7.35025 18.9023 8.38317 19.9628 9.71122C21.9514 12.3673 23.2771 34.0587 21.9514 42.027C20.8909 47.9295 17.0463 53.0941 13.5994 53.0941C11.876 53.0941 11.7434 52.6514 12.9365 51.3234C13.8646 50.2904 14.5274 48.2246 14.5274 46.4539C14.5274 39.3709 5.64511 37.1575 1.9331 43.3551C-0.718331 47.9295 0.474814 53.6843 4.84968 57.5209C9.09197 61.2099 13.9971 61.2099 19.1674 57.816C23.012 55.1599 23.2771 55.1599 27.5194 57.9636C32.6897 61.3575 38.6554 60.6197 43.1629 55.8977L45.9469 52.9465L50.9846 56.6355C55.8898 60.4721 59.9995 61.3575 64.1092 59.5868C67.1584 58.2587 66.7606 56.488 62.6509 54.2746C58.1435 51.9136 55.0943 46.1587 50.3218 30.8124C45.0189 14.2856 41.3069 8.53074 32.9549 3.80879C25.796 -0.0277901 20.3606 -0.765591 11.876 1.44782ZM32.9549 14.138C37.7274 20.7783 41.1743 33.6161 40.7766 42.6173C40.3789 49.7002 39.9812 51.0282 36.7994 53.0941C33.3526 55.1599 32.9549 55.0124 30.3034 52.2087C27.7846 49.4051 27.5194 47.0441 27.1217 32.288C26.9891 22.9917 26.3263 13.5478 25.796 11.1868C24.868 7.35025 25.0006 7.20269 27.5194 8.6783C28.9777 9.56366 31.4966 12.0722 32.9549 14.138Z" fill="#FCCB30"/>
<path id="Vector_2" d="M191.936 25.6677C190.136 27.425 188.85 34.4543 188.85 41.4836C188.85 48.5129 187.565 55.5422 185.765 57.2995C183.45 59.5589 183.964 60.5631 187.05 61.8183C196.051 65.0819 199.137 61.0652 199.137 46.2535C199.137 33.9522 199.651 32.446 202.994 35.2075C205.052 36.9648 206.852 39.7263 206.852 41.4836C206.852 43.2409 208.652 46.0024 210.709 47.7598C212.767 49.5171 214.567 53.5338 214.567 56.7974C214.567 60.3121 216.11 62.8225 218.167 62.8225C223.053 62.8225 224.082 58.8058 223.568 45.2493C223.31 38.9731 224.082 32.697 225.111 31.1907C227.939 27.6761 221.253 21.3999 217.138 23.9104C215.853 24.6635 214.567 27.6761 214.567 30.4376C214.567 37.2158 208.138 36.4627 204.795 28.9313C201.451 22.1531 196.823 20.8978 191.936 25.6677Z" fill="#0B1C3F"/>
<path id="Vector_3" d="M141.361 24.5969C140.333 25.6011 139.561 32.3794 139.561 39.6597C139.561 47.9442 138.275 53.2162 136.475 53.9693C131.332 55.7266 138.018 61.5007 143.676 60.2455C146.762 59.7434 148.819 56.9819 149.333 52.463C150.105 46.689 151.391 45.6848 157.82 45.6848C164.506 45.6848 165.277 46.4379 165.277 53.2162C165.277 58.9902 166.306 60.7476 170.421 60.7476C175.05 60.7476 175.564 58.9902 176.078 45.6848C176.078 37.4003 176.335 29.1158 176.593 27.3584C176.85 25.8522 174.535 24.3459 171.707 24.3459C167.849 24.3459 166.306 26.3543 165.792 32.3794C165.02 39.6597 163.992 40.6639 157.305 40.6639C150.105 40.6639 149.591 40.1618 150.362 32.6304C151.133 24.5969 145.99 20.0781 141.361 24.5969Z" fill="#0B1C3F"/>
<path id="Vector_4" d="M80.2198 26.7283C77.9053 32.0002 77.9053 35.0128 80.2198 41.289C83.0486 48.5693 82.7914 49.8245 77.9053 53.5902C72.5049 58.109 72.5049 58.109 77.6482 58.109C80.7341 58.109 83.8201 56.8538 84.5916 55.5986C85.6202 54.0923 88.7062 54.3433 92.8208 56.6028C97.7069 59.1132 102.079 59.3643 108.251 57.6069C113.651 56.1007 118.537 56.3517 121.88 58.109C128.052 61.3726 128.824 58.6111 122.909 54.3433C119.566 52.0839 119.309 50.3266 121.623 46.0588C128.309 34.0086 122.909 18.4438 113.394 21.9584C107.993 23.9668 105.165 38.5274 108.765 45.0546C112.622 52.335 106.193 57.3559 97.4497 53.5902C91.7921 51.0797 91.535 50.0756 94.3638 43.2973C100.279 27.7325 87.1632 12.1676 80.2198 26.7283Z" fill="#0B1C3F"/>
</g>
</svg>
