<svg width="167" height="63" viewBox="0 0 167 63" fill="none" xmlns="http://www.w3.org/2000/svg">
<g id="Group 48">
<path id="Vector" d="M118.023 2.92542C118.023 4.25563 120.008 7.44812 122.433 10.1085C126.401 14.3652 126.842 14.3652 126.842 10.6406C126.842 7.18208 128.826 6.11792 135.881 6.11792C146.463 6.11792 145.802 8.77833 133.456 15.4294C123.315 21.0162 121.992 24.7408 130.369 24.7408H136.322L130.369 30.3277C121.33 38.841 123.315 47.0883 134.558 48.1524C153.297 49.4826 157.266 51.0789 156.164 56.6657C155.061 61.4545 155.723 61.7205 160.132 59.5922C162.998 58.528 165.643 55.6016 166.084 53.4733C166.746 48.9506 160.573 46.0241 148.888 46.0241C132.354 45.7581 131.251 35.1164 146.684 24.7408L156.604 18.0898L149.991 16.4935C146.463 15.4294 144.479 14.6312 145.581 14.3652C146.904 14.0992 150.872 11.1727 154.4 7.44812L161.014 1.06313L139.629 0.797092C127.724 0.797092 118.023 1.86126 118.023 2.92542Z" fill="#0B1C3F"/>
<path id="Vector_2" d="M93.7719 4.33091C93.1106 5.92716 89.8036 6.1932 86.7171 5.39508C81.6465 3.79883 81.426 4.06487 83.6306 9.11965C86.7171 16.0367 86.9376 54.8787 83.8511 54.8787C82.7488 54.8787 81.6465 56.741 81.6465 58.8694C81.6465 61.2637 83.6306 62.86 87.1581 62.86C92.2287 62.86 92.6696 62.0619 92.6696 49.2919C92.6696 37.054 93.1106 35.9898 97.2993 37.5861C108.322 41.8427 115.598 16.3028 106.338 6.1932C101.709 1.13842 95.7561 0.34029 93.7719 4.33091ZM102.811 13.3763C104.795 23.2198 103.031 29.6048 98.1812 29.6048C95.7561 29.6048 93.5515 27.4765 93.1106 24.8161C91.7878 16.8349 94.6538 6.99132 98.1812 6.99132C99.9449 6.99132 101.929 9.91778 102.811 13.3763Z" fill="#0B1C3F"/>
<path id="Vector_3" d="M43.866 5.36104C48.4957 10.9479 48.2752 12.5442 41.8818 19.1952C29.3154 32.4972 40.7795 48.1937 54.8891 37.0199C59.5188 33.2954 60.1802 33.2954 61.2825 37.0199C63.0462 42.0747 72.9671 42.3408 74.7308 37.0199C75.3922 34.3595 74.5103 33.0293 71.8648 33.0293C66.1327 33.0293 54.4482 6.69125 58.637 3.49875C60.6212 1.90251 57.9756 1.10438 51.1412 1.10438C41.4409 1.10438 40.7795 1.37043 43.866 5.36104ZM53.3459 32.2312C50.2594 35.9558 49.1571 36.2218 46.9525 33.2954C44.5274 30.635 44.9683 29.3048 48.2752 26.1123C54.2277 20.7914 58.637 26.1123 53.3459 32.2312Z" fill="#FCCB30"/>
<path id="Vector_4" d="M4.2955 8.63031C-4.74348 22.4645 4.07504 42.4175 18.1847 40.8213C26.1213 39.7571 31.4124 31.7759 26.3418 28.0513C23.9167 26.189 22.5939 26.9872 21.4916 30.9778C20.3893 34.1703 18.1847 36.0326 15.98 35.5005C10.248 34.1703 8.92522 10.2266 14.4368 7.56614C16.6414 6.50198 19.287 7.56614 20.8302 10.4926C22.5939 13.153 25.019 14.2172 27.2236 13.153C30.751 11.5568 30.751 11.0247 27.2236 6.50198C21.4916 -1.21322 10.0275 -0.149052 4.2955 8.63031Z" fill="#0B1C3F"/>
</g>
</svg>
