<svg width="162" height="56" viewBox="0 0 162 56" fill="none" xmlns="http://www.w3.org/2000/svg">
<g id="Group 45">
<path id="Vector" d="M106.463 9.30572C102.878 13.3252 104.808 20.1081 110.323 22.1178C114.735 23.6251 121.077 17.3447 118.596 13.5764C115.838 9.55693 121.629 10.5618 125.765 15.0837C128.522 18.3495 127.695 21.6154 118.871 36.4372C113.081 45.9835 109.496 53.7712 110.875 54.0224C111.978 54.0224 116.39 54.7761 120.802 55.2785C127.971 56.5346 131.556 52.7663 124.938 50.7566C123.008 50.0029 124.111 45.9835 128.798 38.9494L135.968 27.8958L140.655 36.186C143.137 40.7079 144.516 46.7371 143.689 50.0029C142.31 55.0273 143.137 55.5297 151.134 55.0273C163.267 54.0224 162.991 54.2736 157.476 50.5054C154.718 48.7468 147.273 38.1957 140.931 27.1422C130.177 8.55207 129.074 7.29598 119.699 6.54233C113.632 6.03989 108.669 7.04476 106.463 9.30572Z" fill="#0B1C3F"/>
<path id="Vector_2" d="M57.5023 21.9599C63.293 27.2355 63.0173 28.7428 55.0206 35.0233C39.3031 47.5841 53.6419 62.406 71.2897 51.8548C77.0803 48.3378 77.9076 48.3378 79.2863 51.8548C81.4923 56.628 93.9009 56.8792 96.1068 51.8548C96.9341 49.3426 95.8311 48.0866 92.5221 48.0866C85.3527 48.0866 70.7382 23.216 75.9773 20.2014C78.4591 18.6941 75.1501 17.9405 66.602 17.9405C54.4691 17.9405 53.6419 18.1917 57.5023 21.9599ZM69.3594 47.3329C65.499 50.85 64.1202 51.1012 61.3628 48.3378C58.3296 45.8256 58.8811 44.5695 63.0173 41.5549C70.4624 36.5306 75.9773 41.5549 69.3594 47.3329Z" fill="#FCCB30"/>
<path id="Vector_3" d="M8.90896 5.0346C5.32426 8.55164 4.22127 14.8321 4.22127 31.1612C4.22127 46.2343 3.11829 53.2683 0.912316 54.022C-1.01791 54.7756 7.25448 55.5293 19.3873 55.5293C34.2776 55.5293 40.0683 55.0269 37.3108 53.2683C34.0019 51.5098 34.0019 50.2537 36.7593 47.7416C41.7228 43.2196 40.8955 34.6783 34.8291 29.6539C29.8657 25.6344 29.8657 24.8808 34.0019 18.0979C38.1381 11.315 38.1381 10.5614 33.4504 5.78825C26.8325 -0.743401 14.9754 -0.994617 8.90896 5.0346ZM25.7295 12.0687C26.5567 17.8467 19.9388 24.3783 15.2511 21.8662C12.2179 20.1076 11.3907 9.80773 14.4239 7.04434C18.0086 3.77851 24.9023 6.79312 25.7295 12.0687ZM25.7295 31.1612C33.1746 37.9441 27.6597 50.7562 17.4571 50.7562C13.5966 50.7562 12.4937 48.7464 12.4937 41.2099C12.4937 28.1466 18.0086 24.1271 25.7295 31.1612Z" fill="#0B1C3F"/>
</g>
</svg>
