<svg width="43" height="41" viewBox="0 0 43 41" fill="none" xmlns="http://www.w3.org/2000/svg">
<g id="Arrows-chevron/Arrow-Right">
<path id="Icon" d="M7.78316 21.2173L19.9244 32.9752C20.259 33.2903 20.7415 33.4083 21.1902 33.2848C21.6389 33.1613 21.9856 32.8151 22.0996 32.3765C22.2137 31.938 22.0778 31.4738 21.7432 31.1587L11.8395 21.5844L34.7719 21.5695C35.4899 21.569 36.0716 21.0042 36.0711 20.308C36.0707 19.6118 35.4883 19.0477 34.7703 19.0482L11.8552 19.0631L21.7291 9.4759C21.9767 9.24162 22.1163 8.92028 22.1161 8.5848C22.1158 8.24933 21.9759 7.92817 21.728 7.69421C21.4889 7.45125 21.1553 7.31722 20.809 7.32503C20.464 7.32367 20.1329 7.45718 19.8906 7.69541L7.76469 19.4692C7.25808 19.9617 7.2586 20.759 7.76585 21.2509L7.78316 21.2173Z" fill="black"/>
</g>
</svg>
