<svg width="26" height="20" viewBox="0 0 26 20" fill="none" xmlns="http://www.w3.org/2000/svg">
<path id="Vector" d="M21.9271 9.56861C21.9271 5.01785 17.828 1.32874 12.7715 1.32874C7.71501 1.32874 3.61589 5.01785 3.61589 9.56861M18.0033 13.6886V16.0428C18.0033 16.5898 18.0033 16.8632 18.0536 17.0907C18.26 18.0246 19.0712 18.755 20.1089 18.9408C20.3616 18.986 20.6654 18.986 21.2732 18.986C21.8809 18.986 22.1848 18.986 22.4375 18.9408C23.4752 18.755 24.2862 18.0246 24.4926 17.0907C24.5429 16.8632 24.543 16.5898 24.543 16.0428V13.6886C24.543 13.1416 24.5429 12.8676 24.4926 12.6402C24.2862 11.7063 23.4752 10.9767 22.4375 10.791C22.1848 10.7457 21.8809 10.7457 21.2732 10.7457C20.6654 10.7457 20.3616 10.7457 20.1089 10.791C19.0712 10.9767 18.26 11.7063 18.0536 12.6402C18.0033 12.8676 18.0033 13.1416 18.0033 13.6886ZM7.53973 13.6886V16.0428C7.53973 16.5898 7.53954 16.8632 7.48928 17.0907C7.28287 18.0246 6.47182 18.755 5.43412 18.9408C5.18143 18.986 4.87766 18.986 4.26992 18.986C3.66219 18.986 3.35831 18.986 3.10562 18.9408C2.06792 18.755 1.25668 18.0246 1.05026 17.0907C1 16.8632 1 16.5898 1 16.0428V13.6886C1 13.1416 1 12.8676 1.05026 12.6402C1.25668 11.7063 2.06792 10.9767 3.10562 10.791C3.35831 10.7457 3.66218 10.7457 4.26992 10.7457C4.87767 10.7457 5.18143 10.7457 5.43412 10.791C6.47182 10.9767 7.28287 11.7063 7.48928 12.6402C7.53954 12.8676 7.53973 13.1416 7.53973 13.6886Z" stroke="#FBB03B" stroke-width="1.68165" stroke-linecap="round" stroke-linejoin="round"/>
</svg>
