<svg width="20" height="19" viewBox="0 0 20 19" fill="none" xmlns="http://www.w3.org/2000/svg">
<path id="Vector" d="M1 15.7197V3.74243C1 2.7548 1 2.26043 1.23384 1.96822C1.43793 1.71318 1.7525 1.54572 2.10174 1.50569C2.50173 1.45984 2.99232 1.69239 3.9721 2.15682L16.6057 8.14543L16.6103 8.14724C17.693 8.6605 18.2347 8.91725 18.4123 9.25945C18.5673 9.55798 18.5673 9.90257 18.4123 10.2011C18.2344 10.5438 17.6915 10.8016 16.6057 11.3163L3.9721 17.3049C2.99162 17.7697 2.50188 18.0013 2.10174 17.9555C1.7525 17.9154 1.43793 17.748 1.23384 17.493C1 17.2007 1 16.7073 1 15.7197Z" stroke="#150D7C" stroke-width="2" stroke-linecap="round" stroke-linejoin="round"/>
</svg>
