<svg width="18" height="13" viewBox="0 0 18 13" fill="none" xmlns="http://www.w3.org/2000/svg">
<path id="Vector" d="M17.34 4.7563C17.3785 3.64212 17.1348 2.53628 16.6316 1.54145C16.2902 1.13325 15.8164 0.857778 15.2927 0.763037C13.1268 0.566507 10.9519 0.485956 8.77742 0.521729C6.61082 0.484332 4.44376 0.562284 2.28545 0.755253C1.85874 0.832873 1.46385 1.03302 1.14897 1.33128C0.448394 1.97736 0.370553 3.08271 0.292712 4.0168C0.179773 5.69628 0.179773 7.38144 0.292712 9.06092C0.315231 9.58667 0.393511 10.1085 0.526235 10.6177C0.620093 11.0109 0.809985 11.3746 1.07891 11.6764C1.39593 11.9904 1.80002 12.202 2.23874 12.2836C3.91694 12.4907 5.60789 12.5765 7.29843 12.5404C10.0229 12.5793 12.4126 12.5404 15.2382 12.3225C15.6877 12.2459 16.1032 12.0341 16.4292 11.7153C16.6471 11.4973 16.8099 11.2304 16.904 10.9369C17.1824 10.0827 17.3192 9.18867 17.3088 8.29029C17.34 7.85438 17.34 5.22334 17.34 4.7563ZM7.0182 8.75734V3.93896L11.6264 6.35983C10.3342 7.07597 8.62952 7.88552 7.0182 8.75734Z" fill="#FBB03B"/>
</svg>
