<svg width="99" height="53" viewBox="0 0 99 53" fill="none" xmlns="http://www.w3.org/2000/svg">
<g id="Group 9">
<path id="Vector" d="M10.994 1.89573C3.20598 3.77993 -0.0599697 10.8143 4.21089 16.7181C6.47193 19.9841 11.2452 20.3609 14.0087 17.4718C16.521 15.0851 16.521 13.2009 14.0087 9.68376C12.2502 7.17149 12.2502 6.92027 14.5112 6.92027C15.8929 6.92027 17.6515 7.79956 18.6564 8.93008C20.5406 11.1911 21.7968 29.6563 20.5406 36.4394C19.5357 41.464 15.8929 45.8605 12.627 45.8605C10.994 45.8605 10.8684 45.4836 11.9989 44.3531C12.8782 43.4738 13.5063 41.7152 13.5063 40.2079C13.5063 34.1784 5.09018 32.2942 1.57301 37.57C-0.939264 41.464 0.191257 46.3629 4.3365 49.6289C8.35614 52.7692 13.0038 52.7692 17.9028 49.8801C21.5456 47.619 21.7968 47.619 25.8164 50.0057C30.7153 52.8948 36.368 52.2667 40.6388 48.2471L43.2767 45.7348L48.05 48.8752C52.6977 52.1411 56.5917 52.8948 60.4858 51.3875C63.3749 50.2569 62.998 48.7496 59.104 46.8654C54.8331 44.8556 51.944 39.9566 47.4219 26.8928C42.3974 12.8241 38.8802 7.92517 30.9666 3.90554C24.1834 0.639587 19.0333 0.0115204 10.994 1.89573ZM30.9666 12.6985C35.4887 18.3511 38.7546 29.2795 38.3778 36.9419C38.0009 42.9713 37.6241 44.1019 34.6094 45.8605C31.3434 47.619 30.9666 47.4934 28.4543 45.1068C26.0676 42.7201 25.8164 40.7103 25.4396 28.149C25.314 20.2353 24.6859 12.196 24.1834 10.1862C23.3041 6.92027 23.4298 6.79465 25.8164 8.05079C27.1982 8.80447 29.5848 10.9399 30.9666 12.6985Z" fill="#0B1C3F"/>
<path id="Vector_2" d="M75.3881 26.475C78.7905 30.4417 78.6285 31.575 73.93 36.2973C64.695 45.7417 73.1199 56.8862 83.489 48.9529C86.8913 46.3084 87.3774 46.3084 88.1875 48.9529C89.4836 52.5418 96.7744 52.7306 98.0705 48.9529C98.5566 47.064 97.9085 46.1195 95.9643 46.1195C91.7519 46.1195 83.1649 27.4195 86.2433 25.1528C87.7014 24.0194 85.7572 23.4528 80.7347 23.4528C73.6059 23.4528 73.1199 23.6417 75.3881 26.475ZM82.3549 45.5528C80.0866 48.1973 79.2765 48.3862 77.6564 46.3084C75.8742 44.4195 76.1982 43.4751 78.6285 41.2084C83.0029 37.4306 86.2433 41.2084 82.3549 45.5528Z" fill="#0B1C3F"/>
</g>
</svg>
