<svg width="170" height="69" viewBox="0 0 170 69" fill="none" xmlns="http://www.w3.org/2000/svg">
<g id="Group 46">
<path id="Vector" d="M109.983 13.7791C106.104 18.376 108.193 26.1334 114.161 28.4318C118.935 30.1557 125.799 22.973 123.113 18.6633C120.129 14.0664 126.396 15.2156 130.872 20.3872C133.856 24.1222 132.96 27.8572 123.411 44.8084C117.145 55.7262 113.266 64.6328 114.758 64.9201C115.951 64.9201 120.726 65.782 125.5 66.3566C133.259 67.7932 137.138 63.4835 129.976 61.185C127.888 60.3231 129.081 55.7262 134.154 47.6815L141.912 35.0399L146.985 44.5211C149.671 49.6927 151.163 56.5881 150.268 60.3231C148.776 66.0693 149.671 66.6439 158.325 66.0693C171.454 64.9201 171.156 65.2074 165.188 60.8977C162.204 58.8866 154.147 46.8196 147.284 34.178C135.646 12.9171 134.452 11.4806 124.307 10.6187C117.742 10.0441 112.371 11.1933 109.983 13.7791Z" fill="#0B1C3F"/>
<path id="Vector_2" d="M57.2669 28.2511C63.5334 34.2846 63.235 36.0084 54.5813 43.1912C37.5724 57.5566 53.0893 74.5078 72.187 62.4408C78.4534 58.4185 79.3486 58.4185 80.8407 62.4408C83.2279 67.8997 96.6559 68.187 99.0432 62.4408C99.9384 59.5678 98.7448 58.1312 95.1639 58.1312C87.4055 58.1312 71.5902 29.6876 77.2598 26.2399C79.9454 24.5161 76.3646 23.6541 67.1142 23.6541C53.9845 23.6541 53.0893 23.9415 57.2669 28.2511ZM70.0982 57.2693C65.9206 61.2916 64.4286 61.5789 61.4445 58.4185C58.1621 55.5454 58.7589 54.1089 63.235 50.6612C71.2918 44.915 77.2598 50.6612 70.0982 57.2693Z" fill="#FCCB30"/>
<path id="Vector_3" d="M16.5395 3.18447C15.6712 4.97629 11.3292 5.27493 7.27677 4.37902C0.619141 2.5872 0.329679 2.88583 3.2243 8.55994C7.27677 16.3245 7.56623 59.9255 3.51376 59.9255C2.06645 59.9255 0.619141 62.016 0.619141 64.4051C0.619141 67.0928 3.2243 68.8846 7.85569 68.8846C14.5133 68.8846 15.0922 67.9887 15.0922 53.6541C15.0922 39.9168 15.6712 38.7223 21.1709 40.5141C35.644 45.2923 45.1963 16.6231 33.0389 5.27493C26.9602 -0.399178 19.1447 -1.29509 16.5395 3.18447ZM28.4075 13.3381C31.0126 24.3877 28.6969 31.555 22.3288 31.555C19.1447 31.555 16.2501 29.1659 15.6712 26.1795C13.9344 17.2204 17.6974 6.17084 22.3288 6.17084C24.6445 6.17084 27.2496 9.45585 28.4075 13.3381Z" fill="#0B1C3F"/>
</g>
</svg>
